<svg width="256" height="256" viewBox="0 0 256 256" fill="none" xmlns="http://www.w3.org/2000/svg">
<line x1="4.00001" y1="5" x2="251" y2="5" stroke="#E84A3A" stroke-width="8"/>
<line x1="247" y1="62" x2="247" y2="9" stroke="#E84A3A" stroke-width="8"/>
<line x1="247" y1="256" x2="247" y2="202" stroke="#E84A3A" stroke-width="8"/>
<line x1="8.00001" y1="9" x2="8" y2="256" stroke="#E84A3A" stroke-width="8"/>
<line x1="4.00001" y1="252" x2="251" y2="252" stroke="#E84A3A" stroke-width="8"/>
<path d="M164.749 89H175.04V138.592H183.797V148.225H175.04V165.632H164.749V148.225H131.688V143.408C131.688 134.14 136.067 123.922 144.825 112.756L164.749 89ZM152.597 117.463C146.248 126.148 142.708 133.191 141.978 138.592H164.749V103.451L152.597 117.463Z" fill="white"/>
<path d="M122.577 141.547C122.577 149.429 120.205 155.596 115.461 160.048C110.79 164.5 104.55 166.726 96.7411 166.726C89.9537 166.726 84.407 165.449 80.1011 162.895C75.8681 160.34 73.1677 156.618 72 151.728L80.1011 143.737C80.9039 147.897 82.6919 151.181 85.4653 153.589C88.3116 155.925 91.9607 157.093 96.4126 157.093C106.411 157.093 111.411 151.911 111.411 141.547C111.411 132.279 105.754 127.644 94.4421 127.644H88.3116V117.354C92.7635 115.967 96.7046 113.705 100.135 110.566C103.565 107.355 106.046 103.596 107.579 99.2905H75.6126V89H117.869V91.299C117.869 103.56 113.162 112.573 103.747 118.339C109.878 119.726 114.549 122.426 117.76 126.44C120.971 130.454 122.577 135.49 122.577 141.547Z" fill="white"/>
</svg>
